# xmcd CD database file
#
# Track frame offsets:
#	150
#	21069
#	45965
#	79159
#	113707
#	118420
#	149867
#	174007
#	204897
#	234464
#
# Disc length: 3470 seconds
#
# Revision: 0
# Processed by: cddbd v1.5.2PL0 Copyright (c) Steve Scherf et al.
# Submitted via: CDex 1.70beta2
#
DISCID=7d0d8c0a
DTITLE=Akki Schulz - Live in Paris
DYEAR=2008
DGENRE=Jazz
TTITLE0=Sting
TTITLE1=Bach
TTITLE2=Grok et Bok!
TTITLE3=Friggas Rocken
TTITLE4=Trigga-Thema
TTITLE5=Damauul
TTITLE6=Wie Weiter/Bottesini
TTITLE7=Rêve
TTITLE8=Delaydecay (Popsong)
TTITLE9=Fandango
EXTD=YEAR: 2008
EXTT0=
EXTT1=
EXTT2=
EXTT3=
EXTT4=
EXTT5=
EXTT6=
EXTT7=
EXTT8=
EXTT9=
PLAYORDER=
